<?xml version="1.0" encoding="utf-8"?><!DOCTYPE svg PUBLIC "-//W3C//DTD SVG 1.1//EN" "http://www.w3.org/Graphics/SVG/1.1/DTD/svg11.dtd"><svg version="1.1" id="Contours" xmlns="http://www.w3.org/2000/svg" xmlns:xlink="http://www.w3.org/1999/xlink" x="0px" y="0px" width="551.678650px" height="551.678650px" viewBox="0.000000 0.000000 551.678650 544.854431" enable-background="new 0 0 551.678650 551.678650" xml:space="preserve" stroke="black" fill="none" stroke-linecap='round' stroke-linejoin='round'><path class="selected"  fill="#000000" opacity="1.000000" stroke="none" 
 	d="
M541.611686 113.558274 C529.793073 141.728316 512.825140 167.407305 495.384079 192.487980 C441.281369 270.289012 381.553315 344.294975 332.264928 425.231732 C309.836404 462.061745 289.163478 501.808378 286.609001 544.854437 C277.923987 540.781646 272.853134 531.182698 271.776852 521.650714 C270.700570 512.118731 272.995786 502.549442 275.603638 493.318180 C311.003585 368.009633 403.776438 268.828133 480.811340 163.847126 C496.042208 143.090927 510.902304 121.648653 519.870657 97.516356 C525.388473 82.668858 528.363802 65.300567 520.519623 51.539631 C512.575906 37.604078 495.736078 31.330427 479.833856 29.227659 C429.271408 22.541729 379.167707 47.576603 340.999367 81.406185 C322.030228 98.219020 304.142479 119.539175 302.989786 144.860529 C302.768063 149.731154 302.674990 155.605294 298.479640 158.089481 C292.977670 161.347357 286.670546 155.610558 282.662570 150.628433 C252.579613 113.233725 210.204101 85.897807 163.732629 73.908200 C127.649585 64.598799 87.430527 64.931937 55.195277 83.627917 C43.907964 90.174396 33.144418 100.079627 31.518505 113.026296 C28.777001 134.856092 51.850279 150.228101 71.890493 159.308059 C168.265793 202.974437 273.628802 233.743551 352.643972 304.110828 C357.242246 308.205839 361.046158 316.995915 355.256988 319.093237 C287.025002 279.122152 215.033021 245.572744 140.541992 219.032638 C109.952187 208.133920 78.751244 198.331218 50.235722 182.794708 C25.636388 169.391909 1.281242 148.114993 0.048404 120.128526 C-1.393224 87.402351 29.609954 62.095722 60.620946 51.541141 C137.735879 25.295101 226.239791 57.618598 283.111808 115.937901 C312.006183 62.387523 363.665872 21.614874 422.464214 5.953367 C447.828733 -0.802719 475.235572 -2.948928 500.052062 5.603574 C524.868553 14.156077 546.477366 34.941235 550.816110 60.829047 C553.805606 78.666359 548.608764 96.880515 541.611686 113.558274 z"/></svg>