<?xml version="1.0" encoding="utf-8"?><!DOCTYPE svg PUBLIC "-//W3C//DTD SVG 1.1//EN" "http://www.w3.org/Graphics/SVG/1.1/DTD/svg11.dtd"><svg version="1.1" id="Contours" xmlns="http://www.w3.org/2000/svg" xmlns:xlink="http://www.w3.org/1999/xlink" x="0px" y="0px" width="488.650726px" height="488.650726px" viewBox="-0.000000 -0.000000 488.650726 428.843994" enable-background="new 0 0 488.650726 488.650726" xml:space="preserve" stroke="black" fill="none" stroke-linecap='round' stroke-linejoin='round'><path class="selected"  fill="#000000" opacity="1.000000" stroke="none" 
 	d="
M114.640243 31.468011 C175.003978 43.390799 230.647366 77.835505 268.237046 126.548433 C274.300034 91.352134 287.681091 56.265695 313.043372 31.120238 C338.405652 5.974782 377.325272 -7.338068 411.126787 4.194359 C432.415725 11.457729 449.782105 27.615243 462.391569 46.242562 C485.224776 79.972894 493.796339 123.036200 485.619477 162.938951 C477.238475 203.837892 452.663348 239.424514 426.666038 272.091077 C389.514171 318.773747 348.247778 362.180705 303.501959 401.643910 C304.929053 406.454777 308.999781 409.943043 311.680924 414.184798 C314.362067 418.426553 315.165394 424.948737 310.995292 427.740020 C306.997693 430.415840 301.705670 427.718123 297.704861 425.047103 C252.193531 394.662816 207.376310 363.238864 163.299944 330.808020 C130.664024 306.794914 98.342651 282.151600 69.276346 253.922493 C47.604006 232.874388 27.581329 209.540774 14.522263 182.297906 C1.463198 155.055038 -4.190680 123.448183 3.445606 94.218059 C11.081892 64.987934 33.358526 38.895546 62.529224 31.035301 C79.452570 26.475190 97.445489 28.071777 114.640243 31.468011 M401.550274 255.854252 C417.211765 237.797341 432.395500 219.069977 443.518968 197.913353 C454.642437 176.756728 461.572505 152.860537 459.723946 129.029524 C458.457788 112.706631 453.132514 96.905927 446.004827 82.166997 C439.139119 67.969798 430.368258 54.368987 418.161643 44.384152 C405.955028 34.399317 389.933160 28.347236 374.318715 30.558006 C361.988296 32.303805 350.838130 38.962902 341.306129 46.977141 C309.266881 73.914841 293.521362 115.289557 282.255590 155.603765 C280.214121 162.909092 276.264896 171.850460 268.681847 171.669452 C262.824115 171.529628 258.928014 165.796494 255.834535 160.820255 C223.814117 109.311500 168.639606 72.827064 108.705999 63.530736 C95.247681 61.443210 81.073322 60.734467 68.388971 65.693432 C46.038713 74.431299 33.264479 99.670997 33.434919 123.667982 C33.605359 147.664966 44.479744 170.367022 57.882387 190.273138 C114.516884 274.388844 213.693171 318.003663 288.491290 386.473798 C297.559523 361.513288 317.941904 342.699411 336.985132 324.189535 C359.463348 302.340875 381.011057 279.534934 401.550274 255.854252 z"/></svg>