<?xml version="1.0" encoding="utf-8"?><!DOCTYPE svg PUBLIC "-//W3C//DTD SVG 1.1//EN" "http://www.w3.org/Graphics/SVG/1.1/DTD/svg11.dtd"><svg version="1.1" id="Contours" xmlns="http://www.w3.org/2000/svg" xmlns:xlink="http://www.w3.org/1999/xlink" x="0px" y="0px" width="100%" height="100%" viewBox="-0.000000 0.000000 488.380554 428.564880" enable-background="new 0 0 488.380554 488.380554" xml:space="preserve" stroke="black" stroke-linecap='round' stroke-linejoin='round'><path class="selected" opacity="1.000000" stroke="none" 
 	d="
M248.044499 83.365530 C269.330241 59.301063 291.313962 35.096293 318.885941 18.604857 C346.457919 2.113421 380.877421 -5.836847 411.156929 4.902465 C442.551066 16.037106 464.478515 45.270130 476.685828 76.262929 C484.387690 95.816968 488.991563 116.780108 488.314953 137.785377 C486.689986 188.232262 455.676985 232.351821 425.882479 273.092662 C388.653780 323.998977 351.425081 374.905292 314.196382 425.811607 C310.339156 431.085957 302.058251 427.800053 296.654459 424.126365 C236.832946 383.457595 176.950878 342.744548 120.210578 297.876960 C86.254912 271.026400 52.997599 242.198212 29.205114 206.033900 C14.224799 183.263989 3.148583 157.446313 0.553993 130.314288 C-2.040598 103.182263 4.413714 74.665634 21.285010 53.259139 C47.905863 19.482281 96.501831 8.795120 138.459994 18.232196 C180.418157 27.669272 216.631063 53.993053 248.044491 83.365529 M360.278645 93.004608 C361.864840 95.612150 365.196503 96.412368 368.144596 97.202325 C389.500160 102.924647 407.177431 120.711844 412.767259 142.102470 C413.438068 144.669463 414.294411 147.691143 416.797342 148.571353 C418.851160 128.555506 418.008231 108.244719 414.302959 88.467885 C412.434707 78.496121 409.706056 68.369551 403.580242 60.282473 C400.897700 56.741077 397.558540 53.632211 393.587802 51.639536 C384.744895 47.201815 374.088214 48.814265 364.660653 51.816175 C362.141647 52.618273 359.397325 53.734822 358.301640 56.140695 C357.647486 57.577069 357.713180 59.223724 357.791481 60.800099 C358.237541 69.780326 358.683602 78.760553 359.129662 87.740780 C359.219743 89.554313 359.334977 91.453316 360.278644 93.004608 z"/></svg>