<svg width="95" height="64" viewBox="0 0 95 64" fill="none" xmlns="http://www.w3.org/2000/svg">
<path d="M23.94 64C19.6453 64 15.6698 63.2433 12.0135 61.7299C8.35722 60.1583 5.42639 57.7717 3.22101 54.5703C1.07367 51.3106 0 47.1778 0 42.1719C0 38.7376 0.812508 36.1182 2.43752 34.3138C4.12058 32.5093 6.38399 31.6071 9.22777 31.6071C12.1296 31.6071 14.364 32.3929 15.931 33.9645C17.556 35.4779 18.3685 37.7772 18.3685 40.8622C18.3685 43.6562 18.8618 45.5771 19.8484 46.6248C20.8931 47.6144 22.1408 48.1091 23.5917 48.1091C25.0427 48.1091 26.2324 47.6144 27.161 46.6248C28.0896 45.5771 28.5538 43.6562 28.5538 40.8622V34.8377C28.5538 31.869 28.9311 29.4243 29.6856 27.5034C30.4981 25.5825 31.4266 24.0982 32.4713 23.0505C33.5159 21.9445 34.4445 21.2169 35.257 20.8677L34.8218 19.2087H12.9711C10.1854 19.2087 7.95097 18.3938 6.26792 16.764C4.6429 15.0759 3.77236 12.7476 3.65629 9.77899C3.59825 6.86857 4.43978 4.51114 6.18086 2.70668C7.92195 0.902227 10.1854 0 12.9711 0H38.0428C40.7705 0 42.8308 0.931333 44.2236 2.794C45.6745 4.59845 46.4 6.95589 46.4 9.8663V42.1719C46.4 47.1778 45.4134 51.3106 43.4402 54.5703C41.525 57.7717 38.8553 60.1583 35.4311 61.7299C32.065 63.2433 28.2346 64 23.94 64Z" fill="#FF69B4"/>
<path d="M70.46 64C74.7547 64 78.7302 63.2433 82.3865 61.7299C86.0428 60.1583 88.9736 57.7717 91.179 54.5703C93.3263 51.3106 94.4 47.1778 94.4 42.1719C94.4 38.7376 93.5875 36.1182 91.9625 34.3138C90.2794 32.5093 88.016 31.6071 85.1722 31.6071C82.2704 31.6071 80.036 32.3929 78.469 33.9645C76.844 35.4779 76.0315 37.7772 76.0315 40.8622C76.0315 43.6562 75.5382 45.5771 74.5516 46.6248C73.5069 47.6144 72.2592 48.1091 70.8083 48.1091C69.3573 48.1091 68.1676 47.6144 67.239 46.6248C66.3104 45.5771 65.8462 43.6562 65.8462 40.8622V34.8377C65.8462 31.869 65.4689 29.4243 64.7144 27.5034C63.9019 25.5825 62.9734 24.0982 61.9287 23.0505C60.8841 21.9445 59.9555 21.2169 59.143 20.8677L59.5782 19.2087H81.4289C84.2146 19.2087 86.449 18.3938 88.1321 16.764C89.7571 15.0759 90.6276 12.7476 90.7437 9.77899C90.8018 6.86857 89.9602 4.51114 88.2191 2.70668C86.478 0.902227 84.2146 0 81.4289 0H56.3572C53.6295 0 51.5692 0.931333 50.1764 2.794C48.7255 4.59845 48 6.95589 48 9.8663V42.1719C48 47.1778 48.9866 51.3106 50.9598 54.5703C52.875 57.7717 55.5447 60.1583 58.9689 61.7299C62.335 63.2433 66.1654 64 70.46 64Z" fill="#B4B4FF"/>
</svg>
