<?xml version="1.0" encoding="utf-8"?><!DOCTYPE svg PUBLIC "-//W3C//DTD SVG 1.1//EN" "http://www.w3.org/Graphics/SVG/1.1/DTD/svg11.dtd"><svg version="1.1" id="Contours" xmlns="http://www.w3.org/2000/svg" xmlns:xlink="http://www.w3.org/1999/xlink" x="0px" y="0px" width="100%" height="100%" viewBox="-0.000000 -0.000001 1345.622559 1785.770142" enable-background="new 0 0 1345.622559 1345.622559" xml:space="preserve" stroke="black" stroke-linecap='round' stroke-linejoin='round' class="me-svg"><path class="selected"  opacity="1.000000" stroke="none" 
 	d="
M975.020455 613.237523 C959.645958 585.871340 955.225365 553.519909 956.322369 522.149864 C956.621583 513.593521 957.308290 505.051973 958.322241 496.550654 C958.801883 492.529164 959.599016 488.079232 962.834296 485.642964 C966.069575 483.206696 972.195207 485.218494 971.666590 489.233840 C966.710182 526.882315 968.333181 565.387862 976.440129 602.485716 C977.252469 606.203033 977.885181 610.733188 975.020457 613.237524 z"/><path class="selected"  opacity="1.000000" stroke="none" 
 	d="
M867.314589 637.927357 C870.211433 638.739464 871.332146 642.491270 870.512363 645.385951 C869.692579 648.280633 867.557162 650.577019 865.774362 653.000415 C857.348228 664.454218 856.599851 681.025622 863.959264 693.192312 C864.968752 694.861210 866.157058 696.594753 866.094614 698.544210 C866.032171 700.493667 863.903402 702.432177 862.203568 701.475700 C851.892716 695.673888 845.727118 683.710673 845.790361 671.879754 C845.853605 660.048834 851.693235 648.622014 860.441598 640.657041 C862.348307 638.921071 864.831720 637.231305 867.314589 637.927357 z"/><path class="selected"  opacity="1.000000" stroke="none" 
 	d="
M976.282247 633.220222 C958.663519 627.541085 938.088603 624.956731 922.697306 635.241681 C920.714610 636.566581 918.336700 633.645578 918.626390 631.278613 C919.070296 627.651598 922.330180 625.080937 925.505963 623.273538 C940.303648 614.851886 959.271735 614.245351 974.577231 621.704406 C977.229093 622.996776 979.986309 624.775438 980.810719 627.607918 C981.635129 630.440398 979.090006 634.125260 976.282249 633.220223 z"/><path class="selected"  opacity="1.000000" stroke="none" 
 	d="
M987.836329 533.842099 C987.599561 531.614459 988.610270 529.464396 989.601769 527.455574 C993.418486 519.722734 997.339946 512.041593 1001.364709 504.414968 C1005.199221 497.148856 1009.241194 489.784500 1015.320279 484.257783 C1021.823316 478.345636 1030.225805 474.948011 1038.688468 472.576029 C1056.425458 467.604565 1075.281385 466.670408 1093.422905 469.864385 C1106.362052 472.142438 1119.259787 476.690994 1129.109740 485.385216 C1138.959693 494.079438 1145.303322 507.448492 1143.202484 520.417592 C1143.066808 521.255159 1142.885843 522.115531 1142.393459 522.806533 C1141.006328 524.753200 1137.796064 524.336687 1136.089106 522.663385 C1134.382147 520.990082 1133.730267 518.555112 1132.954785 516.294078 C1128.143792 502.266843 1115.615707 491.166685 1101.111191 488.079946 C1106.320536 506.043446 1105.266646 525.758740 1098.171967 543.064522 C1106.377520 538.957469 1114.583073 534.850416 1122.788627 530.743363 C1120.085728 540.499616 1112.168252 548.221836 1103.033012 552.585037 C1093.897771 556.948237 1083.617383 558.316637 1073.500116 558.678627 C1046.650393 559.639295 1019.584145 553.793427 995.524278 541.837117 C992.062032 540.116588 988.244950 537.686627 987.836329 533.842099 M1029.494068 492.022387 C1027.745091 489.974085 1024.484919 492.019907 1022.733836 494.066408 C1013.522234 504.832072 1005.829953 516.895827 999.955572 529.789421 C999.769398 530.198051 999.580613 530.639239 999.659187 531.081353 C999.798380 531.864544 1000.666469 532.254825 1001.418949 532.512774 C1017.017163 537.859794 1033.019257 542.028182 1049.243823 544.970682 C1033.402289 532.962072 1025.386488 511.472033 1029.494068 492.022388 M1074.209465 502.800937 C1075.722510 503.859509 1077.384685 504.842710 1079.225460 504.989090 C1083.480994 505.327493 1086.776065 501.132401 1087.935946 497.024023 C1089.544942 491.324853 1087.259747 483.546761 1081.375809 482.876923 C1079.735065 482.690134 1078.087892 483.107554 1076.514729 483.609639 C1072.768755 484.805190 1068.794006 486.938280 1067.722292 490.721543 C1066.390849 495.421681 1070.206754 500.000519 1074.209465 502.800936 z"/><path class="selected"  opacity="1.000000" stroke="none" 
 	d="
M1001.438451 635.364476 C1003.269707 632.359846 1007.876586 633.290064 1010.938695 635.023497 C1019.682589 639.973341 1026.273637 648.587681 1028.764732 658.321696 C1031.255827 668.055711 1029.613138 678.777201 1024.321942 687.318855 C1023.470101 688.693994 1022.374471 690.119435 1020.788127 690.435909 C1019.201784 690.752382 1017.311282 689.151375 1017.986911 687.681624 C1024.591287 673.314571 1019.761692 654.618522 1007.025285 645.247613 C1005.336911 644.005378 1003.502733 642.885254 1002.223955 641.224386 C1000.945176 639.563519 1000.347556 637.154365 1001.438452 635.364477 z"/><path class="selected"  opacity="1.000000" stroke="none" 
 	d="
M730.673109 510.726122 C711.236410 515.314892 697.895854 532.650408 686.206022 548.842687 C684.682335 534.942347 691.911438 521.119857 702.408034 511.880671 C712.904630 502.641486 726.304546 497.378081 739.766849 493.595558 C751.925362 490.179362 764.459723 487.816365 777.089032 487.796927 C784.775182 487.785096 792.613737 488.684953 799.591694 491.907554 C806.842647 495.256231 812.741244 500.898023 818.493994 506.438405 C827.182729 514.806387 835.871464 523.174369 844.560200 531.542351 C846.634087 533.539679 848.667063 537.155320 846.342670 538.854590 C830.853922 550.177751 813.353699 558.741140 794.908667 564.022804 C762.168407 573.397850 723.102296 570.752788 699.209627 546.484361 C697.751925 545.003735 696.332896 542.586112 697.744978 541.061916 C698.918990 539.794692 701.000396 540.386814 702.587662 541.068536 C713.078724 545.574397 723.569786 550.080257 734.060849 554.586117 C726.031858 541.636186 724.727989 524.755411 730.673109 510.726122 M806.506810 510.149505 C808.447052 519.968996 808.424290 530.172266 806.440257 539.983003 C805.756563 543.363769 804.844016 546.693374 803.932212 550.019878 C814.626024 545.672230 825.319836 541.324582 836.013648 536.976934 C826.178035 528.034458 816.342422 519.091981 806.506809 510.149505 M769.667996 521.584460 C771.262594 523.369916 773.508473 524.560537 775.881158 524.878279 C779.151771 525.316268 782.604321 524.035159 784.797588 521.569733 C788.238432 517.701922 787.979807 511.112197 784.246416 507.525950 C780.513026 503.939703 773.918231 503.946123 770.191828 507.539630 C766.465426 511.133138 766.219630 517.723354 769.667996 521.584460 z"/><path class="selected"  opacity="1.000000" stroke="none" 
 	d="
M907.674267 693.663913 C910.268492 696.392977 912.365317 700.392365 910.804989 703.819197 C908.796777 708.229687 902.611253 708.336363 897.865478 707.355059 C893.145686 706.379128 888.267496 704.869569 884.962385 701.361706 C881.657274 697.853843 880.616419 691.813577 883.888247 688.274650 C886.922593 684.992589 892.198128 685.105256 896.438239 686.519696 C900.690679 687.938249 904.585728 690.414843 907.674266 693.663914 z"/><path class="selected"  opacity="1.000000" stroke="none" 
 	d="
M985.675546 687.026443 C988.976353 685.652664 992.790848 684.995146 996.106077 686.333749 C999.421305 687.672351 1001.873278 691.491064 1000.763512 694.889743 C1000.150847 696.766043 998.629071 698.191392 997.072629 699.405209 C994.072655 701.744788 990.718445 703.629298 987.159830 704.974560 C982.385123 706.779542 975.499331 706.675142 973.846401 701.845691 C972.782180 698.736301 974.675828 695.385891 976.947397 693.010846 C979.403051 690.443329 982.395488 688.391582 985.675543 687.026442 z"/><path class="selected"  opacity="1.000000" stroke="none" 
 	d="
M973.453871 720.912796 C966.108637 726.626525 956.266237 727.868251 946.960584 727.931357 C940.805750 727.973095 934.438291 727.537064 928.961745 724.727942 C927.050460 723.747574 925.198677 722.392327 924.339632 720.423528 C923.480587 718.454729 923.965853 715.784448 925.849778 714.752481 C927.323423 713.945254 929.133181 714.313365 930.776119 714.665499 C944.830630 717.677835 959.469337 717.939163 973.622410 715.430387 C974.867406 715.209698 975.879203 716.694542 975.664149 717.940524 C975.449095 719.186507 974.451882 720.136461 973.453872 720.912796 z"/><path class="selected"  opacity="1.000000" stroke="none" 
 	d="
M806.134575 1333.813947 C809.377525 1333.559427 812.523783 1336.427217 812.570026 1339.679811 C812.616268 1342.932405 809.552810 1345.888480 806.303935 1345.726256 C805.173836 1345.669829 804.079844 1345.293922 802.951118 1345.214637 C800.027086 1345.009246 797.287446 1346.792080 794.357094 1346.864109 C790.127598 1346.968077 786.308274 1342.823191 786.757104 1338.616291 C787.205933 1334.409391 791.813760 1331.163588 795.926122 1332.157536 C798.244936 1332.717987 800.303025 1334.384237 802.688368 1334.350525 C803.852390 1334.334074 804.974005 1333.905033 806.134575 1333.813947 z"/><path class="selected"  opacity="1.000000" stroke="none" 
 	d="
M852.467228 1300.856013 C853.636070 1302.060330 854.476779 1303.580071 854.875919 1305.210181 C856.319198 1311.104603 850.677475 1317.554233 844.643437 1316.907978 C838.609398 1316.261723 834.461501 1308.763609 837.120328 1303.308529 C839.779156 1297.853449 848.240734 1296.501244 852.467228 1300.856013 z"/><path class="selected"  opacity="1.000000" stroke="none" 
 	d="
M780.397061 1341.138811 C778.571330 1342.555219 776.106208 1343.111879 773.848986 1342.617462 C769.504164 1341.665781 766.610847 1336.524793 768.051874 1332.316870 C769.492900 1328.108948 774.930340 1325.820875 778.946445 1327.732438 C783.802507 1330.043800 784.646325 1337.842216 780.397061 1341.138810 z"/><path class="selected"  opacity="1.000000" stroke="none" 
 	d="
M877.777635 1249.411904 C879.470031 1250.634320 880.650282 1252.544049 880.986741 1254.604462 C881.774108 1259.426158 877.154330 1264.338021 872.293470 1263.847363 C867.432611 1263.356705 863.887636 1257.620687 865.622712 1253.053608 C867.357787 1248.486529 873.817158 1246.551254 877.777635 1249.411904 z"/><path class="selected"  opacity="1.000000" stroke="none" 
 	d="
M813.839683 1334.968150 C813.810403 1333.626393 814.131921 1332.278499 814.763696 1331.094427 C817.137686 1326.645105 824.220123 1325.799808 827.574575 1329.565434 C830.929028 1333.331060 829.274070 1340.269111 824.581048 1342.115144 C819.888026 1343.961177 813.949711 1340.009993 813.839683 1334.968150 z"/><path class="selected"  opacity="1.000000" stroke="none" 
 	d="
M850.059063 1430.950361 C849.511266 1435.676318 847.454818 1440.215830 844.263330 1443.744166 C843.707398 1444.358776 843.092335 1444.960452 842.315520 1445.249181 C840.582006 1445.893499 838.575593 1444.684048 837.793820 1443.008026 C837.012048 1441.332004 837.189189 1439.367376 837.619581 1437.568771 C838.383578 1434.376032 839.902153 1431.366459 842.016377 1428.855021 C843.873190 1426.649354 847.534459 1424.900512 849.363863 1427.128965 C850.208761 1428.158161 850.212382 1429.627641 850.059063 1430.950361 z"/><path class="selected"  opacity="1.000000" stroke="none" 
 	d="
M730.700966 1450.875208 C729.210297 1451.948249 727.003561 1451.359486 725.704015 1450.061531 C724.404469 1448.763575 723.791495 1446.948979 723.219932 1445.203463 C721.769066 1440.772594 721.023349 1434.581775 725.277892 1432.674826 C729.588869 1435.887144 732.268491 1441.183774 732.302484 1446.559863 C732.312575 1448.155803 731.996252 1449.942813 730.700966 1450.875208 z"/><path class="selected"  opacity="1.000000" stroke="none" 
 	d="
M855.959951 1275.740501 C855.454576 1272.143762 858.355858 1268.426552 861.967647 1268.043257 C865.579437 1267.659963 869.196274 1270.685449 869.457050 1274.308146 C869.717825 1277.930843 866.571602 1281.443160 862.942153 1281.581117 C859.619112 1281.707429 856.422660 1279.033595 855.959950 1275.740505 z"/><path class="selected"  opacity="1.000000" stroke="none" 
 	d="
M871.310510 1236.592085 C872.812948 1232.423140 878.883034 1230.812605 882.254596 1233.688363 C885.626159 1236.564121 884.993231 1242.812254 881.113456 1244.953461 C877.233681 1247.094668 871.609882 1244.299557 870.974003 1239.914004 C870.812692 1238.801460 870.929365 1237.649685 871.310510 1236.592088 z"/><path class="selected"  opacity="1.000000" stroke="none" 
 	d="
M866.548004 1351.539219 C867.605103 1352.344250 867.935930 1353.778477 868.058264 1355.101567 C868.610771 1361.077188 866.217377 1367.255008 861.783211 1371.298705 C858.003103 1368.225036 858.639168 1362.382788 859.625348 1357.611613 C859.999375 1355.802059 860.413539 1353.908131 861.615588 1352.504757 C862.817638 1351.101384 865.077947 1350.419700 866.548003 1351.539216 z"/><path class="selected"  opacity="1.000000" stroke="none" 
 	d="
M831.317958 1466.250368 C830.785619 1469.685574 830.040721 1473.485511 827.235243 1475.538148 C824.429766 1477.590785 819.185429 1475.781301 819.717767 1472.346095 C820.250106 1468.910889 820.995004 1465.110952 823.800481 1463.058315 C826.605959 1461.005678 831.850296 1462.815162 831.317957 1466.250368 z"/><path class="selected"  opacity="1.000000" stroke="none" 
 	d="
M756.377483 1321.604516 C760.185005 1322.902347 762.001752 1328.118727 759.824207 1331.501018 C757.142394 1335.666568 749.579409 1334.766631 747.949978 1330.088079 C746.320548 1325.409527 751.688231 1320.006138 756.377483 1321.604516 z"/><path class="selected"  opacity="1.000000" stroke="none" 
 	d="
M795.847992 1498.541302 C795.311105 1497.905542 794.939885 1497.085854 795.015367 1496.257156 C795.114872 1495.164698 795.937951 1494.295039 796.722168 1493.527987 C798.750104 1491.544439 800.989431 1489.529337 803.776579 1489.001332 C806.563727 1488.473327 809.947970 1490.118984 810.232616 1492.941387 C810.502105 1495.613485 808.051020 1497.749906 805.656737 1498.966518 C802.502094 1500.569493 798.131050 1501.244807 795.847992 1498.541301 z"/><path class="selected"  opacity="1.000000" stroke="none" 
 	d="
M742.741249 1309.362338 C745.646018 1311.081132 746.671646 1315.335624 744.869137 1318.189200 C743.066629 1321.042777 738.784121 1321.944296 735.984148 1320.059596 C733.285941 1318.243396 732.430360 1314.179106 734.167356 1311.429243 C735.904353 1308.679380 739.942054 1307.706013 742.741249 1309.362338 z"/><path class="selected"  opacity="1.000000" stroke="none" 
 	d="
M848.358163 1294.034688 C846.114094 1289.682577 851.039918 1283.727701 855.735570 1285.116069 C860.431222 1286.504438 861.326765 1294.180524 857.076824 1296.612544 C854.137468 1298.294585 849.910212 1297.044707 848.358163 1294.034689 z"/><path class="selected"  opacity="1.000000" stroke="none" 
 	d="
M712.123690 1301.445836 C709.459538 1299.547390 708.791249 1295.374619 710.729266 1292.739112 C712.667284 1290.103606 716.849569 1289.497701 719.455842 1291.474857 C722.013029 1293.414776 722.602874 1297.486213 720.701358 1300.072080 C718.799843 1302.657948 714.737668 1303.308526 712.123693 1301.445837 z"/><path class="selected"  opacity="1.000000" stroke="none" 
 	d="
M826.490897 1326.164491 C825.464107 1323.687651 826.340663 1320.561970 828.505633 1318.980218 C830.670604 1317.398466 833.914831 1317.513454 835.962381 1319.244515 C838.741147 1321.593768 838.564423 1326.579776 835.626305 1328.726398 C832.688188 1330.873021 827.884372 1329.525853 826.490898 1326.164491 z"/><path class="selected"  opacity="1.000000" stroke="none" 
 	d="
M769.692935 1493.425264 C772.516390 1494.719631 775.067112 1496.605318 777.132476 1498.925137 C777.738611 1499.605948 778.333167 1500.406115 778.314668 1501.317467 C778.272059 1503.416521 775.416544 1504.003056 773.323912 1503.833551 C770.080435 1503.570825 766.531619 1502.882032 764.521425 1500.323070 C762.511232 1497.764108 763.599156 1492.940370 766.845867 1492.721213 C767.831743 1492.654664 768.794705 1493.013485 769.692935 1493.425264 z"/><path class="selected"  opacity="1.000000" stroke="none" 
 	d="
M739.930256 1471.170763 C739.431896 1468.659902 740.902459 1465.278438 743.436129 1465.643543 C744.346322 1465.774704 745.113561 1466.379893 745.769993 1467.023902 C748.820970 1470.017142 750.458716 1474.393709 750.122274 1478.654548 C745.521928 1479.153950 740.831134 1475.709598 739.930257 1471.170763 z"/><path class="selected"  opacity="1.000000" stroke="none" 
 	d="
M711.537011 1406.011134 C712.169442 1404.876034 713.173462 1403.760874 714.472251 1403.721278 C716.393601 1403.662703 717.499019 1405.831965 718.126043 1407.649066 C718.900573 1409.893642 719.685898 1412.265053 719.243880 1414.597998 C718.801862 1416.930944 716.649833 1419.120315 714.311656 1418.706859 C712.404814 1418.369675 711.137268 1416.501034 710.585702 1414.644826 C709.738758 1411.794577 710.089807 1408.608602 711.537010 1406.011135 z"/><path class="selected"  opacity="1.000000" stroke="none" 
 	d="
M858.602108 1396.150440 C857.847782 1398.705505 857.093456 1401.260571 856.339131 1403.815636 C855.795077 1405.658464 854.656701 1407.918925 852.750648 1407.676092 C851.331299 1407.495267 850.528546 1405.953019 850.204145 1404.559458 C849.171930 1400.125244 850.680022 1395.189698 854.014367 1392.089722 C854.987104 1391.185357 856.361531 1390.395576 857.587335 1390.906944 C859.396589 1391.661709 859.157181 1394.270290 858.602110 1396.150439 z"/><path class="selected"  opacity="1.000000" stroke="none" 
 	d="
M848.313775 1411.528694 C851.500000 1410.713489 854.922904 1414.160971 854.066393 1417.336341 C853.209882 1420.511712 848.488515 1421.758781 846.189253 1419.407189 C843.889991 1417.055597 845.268125 1412.344494 848.476471 1411.621234 z"/><path class="selected"  opacity="1.000000" stroke="none" 
 	d="
M750.011305 807.302505 C803.470978 782.978674 865.358170 777.680741 922.174240 792.564275 C928.925750 794.332900 935.545162 789.994829 941.884226 787.074695 C962.298995 777.670479 986.117154 782.466246 1008.038683 787.430982 C1026.052744 791.510763 1044.066804 795.590545 1062.080864 799.670327 C1065.617218 800.471232 1069.680463 801.707561 1070.975202 805.094431 C1072.111743 808.067476 1070.547873 811.337140 1068.929983 814.078152 C1038.369117 865.854006 974.176985 891.838968 914.220498 887.375207 C854.264010 882.911446 798.798491 852.026799 753.827472 812.123002 C752.276032 810.746375 750.673472 809.268111 750.011305 807.302506 M761.001092 809.392309 C824.518385 810.730645 888.035677 812.068981 951.552969 813.407317 C962.995508 813.648417 974.452843 813.889261 985.877775 813.210474 C1002.874216 812.200669 1019.677034 809.163826 1036.431504 806.132912 C1008.124607 797.876949 977.945122 789.594080 949.623958 797.800966 C941.085697 800.275175 932.398468 804.255333 923.683150 802.504093 C869.953896 791.707780 813.625409 794.092819 761.001092 809.392309 M1039.819457 839.654830 C999.749302 864.704145 949.189379 864.791897 902.203431 859.751446 C875.586003 856.896042 848.867213 852.587474 823.960770 842.773717 C812.038602 838.076084 800.561972 832.129348 788.209910 828.718719 C817.073753 845.384642 846.384669 862.237030 878.646621 870.606070 C933.320234 884.788900 993.825552 872.440765 1039.819457 839.654833 M916.810754 822.343301 C909.421457 825.645526 906.500732 834.781666 906.699973 842.872815 C906.766810 845.587092 907.255776 848.608388 909.414175 850.255528 C910.960860 851.435852 913.019835 851.631268 914.959522 851.782970 C918.601846 852.067834 922.244169 852.352698 925.886492 852.637563 C929.124282 852.890789 932.692413 853.052524 935.271176 851.078343 C937.283396 849.537882 938.251192 846.989680 938.741363 844.503362 C939.979588 838.222645 938.580227 831.275178 934.283546 826.529744 C929.986865 821.784311 922.655296 819.731419 916.810754 822.343303 M968.844270 823.752150 C963.828963 820.267009 956.242609 821.224282 952.250259 825.846041 C947.997460 830.769310 948.207270 838.004911 948.650370 844.495560 C948.828346 847.102615 949.085684 849.910702 950.798266 851.884397 C952.843557 854.241526 956.283072 854.663269 959.392851 854.925081 C962.756384 855.208254 966.202156 855.484606 969.458709 854.596688 C972.715261 853.708769 975.798717 851.404964 976.647148 848.137901 C977.081231 846.466378 976.904469 844.704683 976.724774 842.987092 C975.979642 835.864834 974.724950 827.838639 968.844270 823.752150 M875.919877 847.343185 C879.070258 848.943911 882.906810 847.182633 886.391097 847.771673 C888.229437 848.082455 889.957338 849.050793 891.821572 849.024126 C894.640745 848.983803 897.006283 846.565631 897.790856 843.857529 C898.575429 841.149428 898.087785 838.238805 897.335162 835.521651 C896.444622 832.306577 895.132695 829.104307 892.794208 826.724972 C890.455722 824.345636 886.917350 822.932848 883.705104 823.833533 C880.010152 824.869565 877.742727 828.480976 875.828613 831.806965 C874.373776 834.334909 872.888041 836.953345 872.549052 839.850264 C872.210062 842.747183 873.319600 846.021969 875.919877 847.343185 M983.936799 847.627130 C984.228131 849.630804 984.875201 851.996479 986.808151 852.599212 C987.811870 852.912192 988.893531 852.633861 989.907341 852.355297 C992.766883 851.569579 995.707996 850.743972 998.050381 848.925301 C1000.392766 847.106629 1002.013680 844.025903 1001.235467 841.164309 C1000.162074 837.217296 998.901704 833.321136 997.459999 829.493268 C996.551763 827.081797 995.523158 824.623685 993.676638 822.826341 C991.830118 821.028997 988.955287 820.047332 986.607570 821.109549 C983.330680 822.592170 982.706355 826.914262 982.704177 830.510947 C982.700711 836.236130 983.113025 841.961521 983.936799 847.627130 M848.659605 829.449185 C847.848948 831.078229 847.130698 832.753251 846.509460 834.463518 C846.191456 835.338981 845.896555 836.293711 846.163563 837.186049 C846.548026 838.470920 847.921061 839.143410 849.155571 839.667518 C850.950994 840.429760 852.746416 841.192002 854.541838 841.954244 C857.652822 843.275005 861.510907 844.514900 864.163229 842.420189 C866.077497 840.908370 866.541197 838.137513 866.120129 835.734865 C865.699061 833.332217 864.564042 831.121888 863.815147 828.800430 C863.206037 826.912280 862.789509 824.834430 861.370882 823.447487 C859.408401 821.528835 856.074438 821.666817 853.738658 823.107888 C851.402878 824.548959 849.882340 826.992057 848.659606 829.449185 M1013.087125 819.543831 C1010.541278 819.306229 1008.955425 822.237945 1008.393196 824.732277 C1007.160181 830.202587 1007.414579 836.000643 1009.121971 841.341938 C1009.332719 842.001228 1009.584869 842.683863 1010.104124 843.141521 C1010.742306 843.703999 1011.665155 843.816041 1012.512224 843.737739 C1015.719358 843.441273 1018.352267 840.750416 1019.327220 837.680716 C1020.302174 834.611016 1019.873404 831.256992 1018.949920 828.171417 C1018.414573 826.382695 1017.717056 824.642544 1016.868720 822.979279 C1016.059794 821.393282 1014.859801 819.709272 1013.087126 819.543830 M832.965999 823.663465 C831.620014 825.822337 830.442931 828.297043 830.801884 830.815685 C831.160836 833.334326 833.680451 835.659430 836.117137 834.928016 C839.453482 833.926554 839.301043 829.190676 838.443710 825.814421 C837.944611 823.848922 836.555443 821.355936 834.638580 822.017694 C833.883952 822.278212 833.388366 822.986012 832.965998 823.663462 M1028.972386 835.946559 C1029.715687 832.594132 1030.458988 829.241706 1031.202289 825.889280 C1031.315024 825.380821 1031.428431 824.860191 1031.363809 824.343409 C1031.026336 821.644602 1026.485869 822.046468 1025.250876 824.469739 C1024.015883 826.893009 1024.757254 829.793743 1024.783838 832.513438 C1024.796749 833.834138 1024.650395 835.237866 1025.279844 836.398988 C1025.909293 837.560110 1027.740053 838.149085 1028.537748 837.096425 C1028.787274 836.767140 1028.882956 836.349908 1028.972387 835.946559 z"/><path class="selected"  opacity="1.000000" stroke="none" 
 	d="
M858.544626 1375.703523 C861.375367 1374.957651 864.514532 1377.814552 863.969604 1380.690742 C863.424677 1383.566932 859.353625 1385.049069 857.130336 1383.144758 C854.907047 1381.240447 855.830007 1376.916172 858.654915 1376.148508 z"/><path class="selected"  opacity="1.000000" stroke="none" 
 	d="
M876.220073 1292.816467 C876.237357 1295.776618 874.659450 1299.495132 871.707812 1299.270127 C868.770119 1299.046185 867.767271 1295.203437 868.017306 1292.267852 C868.224278 1289.837837 869.276629 1286.915753 871.697597 1286.621277 C874.574538 1286.271339 876.203149 1289.918371 876.220072 1292.816466 z"/><path class="selected"  opacity="1.000000" stroke="none" 
 	d="
M723.958363 1300.735603 C725.181839 1300.539983 726.469257 1300.770228 727.549093 1301.377777 C730.559471 1303.071506 731.150088 1307.851034 728.642568 1310.226625 C726.135047 1312.602215 721.394382 1311.754385 719.865670 1308.656946 C718.336958 1305.559507 720.547542 1301.280951 723.958361 1300.735600 z"/><path class="selected"  opacity="1.000000" stroke="none" 
 	d="
M866.003768 1319.337594 C866.705183 1317.367829 868.430533 1315.366209 870.490596 1315.724117 C872.816691 1316.128248 873.604982 1319.105234 873.403048 1321.457520 C873.154931 1324.347754 872.169381 1327.171678 870.565275 1329.588671 C870.199567 1330.139702 869.731675 1330.714069 869.076639 1330.805197 C868.204078 1330.926584 867.483768 1330.144037 867.027080 1329.390689 C865.222355 1326.413623 864.835918 1322.617241 866.003769 1319.337595 z"/><path class="selected"  opacity="1.000000" stroke="none" 
 	d="
M865.471296 1337.734208 C863.148831 1339.349909 863.501313 1343.525035 866.061784 1344.728498 C868.622254 1345.931961 872.061778 1343.539140 871.823773 1340.719976 C871.585767 1337.900812 867.793761 1336.118507 865.471296 1337.734208 z"/><path class="selected"  opacity="1.000000" stroke="none" 
 	d="
M716.528536 1428.511578 C715.443398 1425.748010 717.582115 1422.239678 720.535746 1421.938188 C723.102320 1424.326078 722.617563 1429.153080 719.627419 1430.982931 C718.756471 1430.087401 717.885523 1429.191871 717.014575 1428.296340 z"/><path class="selected"  opacity="1.000000" stroke="none" 
 	d="
M734.700164 1455.003396 C737.536635 1454.609255 740.254804 1457.736560 739.411368 1460.473261 C738.567933 1463.209961 734.473515 1464.230878 732.485994 1462.169163 C730.498472 1460.107448 731.745871 1455.995366 734.555551 1455.441645 z"/><path class="selected"  opacity="1.000000" stroke="none" 
 	d="
M758.842513 1484.567281 C756.639188 1483.170332 753.215968 1484.961816 753.107837 1487.568426 C752.999707 1490.175036 756.262787 1492.243889 758.574243 1491.034228 C760.885699 1489.824567 761.045838 1485.964230 758.842513 1484.567281 z"/><path class="selected"  opacity="1.000000" stroke="none" 
 	d="
M813.039341 1481.310122 C815.018077 1480.592155 817.886305 1480.244700 818.623443 1482.216375 C818.786181 1482.651656 818.794260 1483.130207 818.747178 1483.592524 C818.467234 1486.341424 815.601665 1488.833279 812.989856 1487.931464 C810.378048 1487.029648 810.355712 1482.269435 813.095514 1481.911242 z"/><path class="selected"  opacity="1.000000" stroke="none" 
 	d="
M832.111807 1455.974777 C830.016739 1454.389118 830.894031 1450.441249 833.436515 1449.778380 C835.979000 1449.115510 838.653833 1451.925797 837.985423 1454.466830 C837.317013 1457.007863 833.791260 1458.195273 831.643473 1456.681788 z"/><path class="selected"  opacity="1.000000" stroke="none" 
 	d="
M875.664346 1308.298262 C875.650958 1306.058080 872.767861 1304.416418 870.834500 1305.548104 C868.901140 1306.679789 868.920967 1309.997455 870.867716 1311.105952 C872.814465 1312.214449 875.677734 1310.538445 875.664346 1308.298262 z"/><path class="selected"  opacity="1.000000" stroke="none" 
 	d="
M784.704606 1500.175942 C783.901342 1502.245736 785.961181 1504.808637 788.155307 1504.469387 C790.349433 1504.130138 791.539051 1501.064814 790.148189 1499.334270 C788.757327 1497.603726 785.507870 1498.106148 784.704606 1500.175942 z"/><path class="selected"  opacity="1.000000" stroke="none" 
 	d="
M946.119535 1582.317822 C935.193613 1595.378545 918.845235 1602.488016 902.806541 1608.208031 C834.452482 1632.585714 760.024145 1639.719334 688.284059 1628.769040 C677.217580 1627.079870 665.363110 1624.507543 657.919614 1616.146047 C650.325326 1607.615163 649.266274 1595.280372 648.578052 1583.879690 C646.272065 1545.680051 643.966077 1507.480411 641.660089 1469.280772 C628.837095 1467.507835 616.014102 1465.734899 603.191108 1463.961963 C600.360244 1509.174614 597.529380 1554.387264 594.698517 1599.599915 C593.578949 1617.480896 593.186775 1637.542394 605.334865 1650.710796 C617.117854 1663.483432 636.423989 1665.068795 653.795728 1665.517923 C740.391362 1667.756760 827.170011 1662.876393 912.968566 1650.942234 C828.619789 1681.601792 737.492692 1693.452628 648.107766 1685.386675 C632.235363 1683.954375 615.874096 1681.720642 602.267149 1673.423916 C570.167775 1653.851581 565.268812 1608.906949 571.915318 1571.903300 C578.561823 1534.899651 593.159668 1497.920463 586.818513 1460.863267 C516.258532 1416.454458 469.039172 1336.962953 463.793356 1253.756375 C461.013277 1209.660124 405.424360 1190.551893 361.322803 1193.246487 C317.221245 1195.941080 269.112558 1208.266027 231.539440 1185.018038 C184.662313 1156.013287 181.897758 1089.261512 190.804115 1034.860984 C221.592475 846.803948 324.791183 678.376754 372.965670 494.005958 C420.169059 313.351698 533.704651 150.820073 687.082170 44.333180 C717.186826 23.432128 750.122359 4.149973 786.590040 0.509574 C823.057722 -3.130825 863.714252 12.800446 878.865894 46.170673 C915.695719 7.762862 980.665196 10.239817 1026.486030 37.296190 C1072.306865 64.352563 1103.437235 110.050467 1132.915226 154.352206 C1185.686636 233.661050 1239.414071 316.681304 1252.831668 410.992928 C1262.630726 479.870022 1250.101971 550.226804 1257.206836 619.433715 C1263.544166 681.164242 1285.445246 741.630499 1281.482230 803.558798 C1277.495484 865.857934 1247.435738 927.241189 1259.938628 988.402894 C1273.480034 1054.644828 1335.248995 1118.670147 1306.227513 1179.736644 C1296.504661 1200.195298 1278.056919 1214.831178 1261.394542 1230.175740 C1244.732166 1245.520303 1228.530552 1263.906934 1225.955651 1286.411606 C1223.380750 1308.916278 1241.204693 1334.592443 1263.683844 1331.803511 C1291.293024 1328.378110 1313.875345 1359.905349 1309.416443 1387.366565 C1304.957540 1414.827782 1281.619312 1435.748345 1256.392780 1447.479597 C1305.580441 1488.771809 1344.004942 1547.527778 1345.581209 1611.730490 C1347.157476 1675.933202 1303.475873 1742.805114 1240.147366 1753.480931 C1021.336967 1790.367634 797.578513 1767.157689 575.730160 1762.474926 C402.702864 1758.822674 229.436575 1766.533258 57.417658 1785.540530 C35.438867 1787.969082 15.015900 1770.785095 6.669560 1750.308189 C-1.676781 1729.831282 -0.576977 1706.861449 1.419860 1684.839239 C18.370100 1497.902750 91.797272 1316.457131 209.625230 1170.343704 C197.684354 1244.373362 153.016042 1308.164806 118.347464 1374.655894 C65.023169 1476.926903 33.879789 1590.691748 27.678818 1705.862872 C27.021123 1718.078297 26.923266 1731.310569 34.028952 1741.268400 C45.384456 1757.181881 68.637152 1757.064797 88.108957 1755.322627 C201.237749 1745.200836 314.366541 1735.079045 427.495334 1724.957254 C451.752832 1652.666471 454.339621 1573.255705 434.838268 1499.539487 C482.749131 1563.167761 476.996798 1653.594735 448.057973 1727.800884 C660.852161 1732.443425 873.646348 1737.085966 1086.440535 1741.728508 C1116.807216 1742.391019 1153.021016 1739.999204 1168.520142 1713.877348 C1179.100994 1696.044632 1175.597506 1673.562530 1171.759874 1653.185269 C1160.485074 1593.317760 1149.210275 1533.450252 1137.935476 1473.582743 C1101.451232 1451.552053 1083.030836 1407.382877 1081.009833 1364.810974 C1078.988829 1322.239071 1090.849099 1280.370027 1102.597415 1239.401399 C1062.980865 1255.609050 1023.364315 1271.816701 983.747765 1288.024352 C1010.901918 1375.769120 1031.358864 1465.585593 1044.882010 1556.435011 C1048.346447 1579.709335 1031.859406 1602.277624 1011.135142 1613.422189 C990.410877 1624.566754 966.213834 1626.780115 942.768037 1628.777887 C955.924710 1609.260703 986.021074 1611.410236 1004.484259 1596.811286 C1028.147745 1578.100429 1023.686251 1541.635014 1016.953569 1512.228760 C1000.072735 1438.498551 983.191901 1364.768342 966.311067 1291.038133 C934.783430 1301.509396 900.104956 1274.636811 892.151364 1242.381894 C884.197771 1210.126978 896.398997 1176.182724 913.274112 1147.566824 C930.149227 1118.950923 951.864947 1093.134750 965.782753 1062.969638 C962.478529 1097.236615 938.060958 1125.029451 920.581139 1154.687495 C903.101320 1184.345539 893.366492 1225.548664 916.775351 1250.790870 C939.435469 1275.225696 979.855795 1269.934743 1009.857161 1255.427513 C1039.858527 1240.920282 1067.413513 1218.929134 1100.455998 1214.600641 C1104.644873 1214.051907 1109.276495 1213.909711 1112.673560 1216.421230 C1116.663395 1219.370995 1117.561850 1224.894018 1117.868381 1229.846384 C1120.366570 1270.207594 1104.888253 1309.450008 1101.391963 1349.737030 C1097.895672 1390.024053 1112.392587 1437.954005 1150.827009 1450.526335 C1198.140263 1466.003034 1241.162825 1419.456328 1268.935994 1378.143820 C1229.459192 1374.877577 1194.133409 1342.908540 1186.954855 1303.952735 C1179.776301 1264.996931 1201.386560 1222.536044 1237.106149 1205.413038 C1274.425669 1187.523069 1278.078413 1134.472029 1263.766659 1095.639424 C1249.454904 1056.806819 1222.876856 1022.005138 1217.491577 980.971051 C1210.507958 927.758159 1240.499267 877.013496 1247.267609 823.772794 C1254.835484 764.242858 1233.125539 705.329920 1225.721144 645.779429 C1215.415026 562.891589 1232.867332 477.623088 1215.797425 395.859842 C1202.994100 334.533126 1171.535830 278.966351 1140.517202 224.535330 C1097.662708 149.334907 1045.361998 66.886916 960.819836 48.333368 C944.653264 44.785463 926.876970 44.067196 912.409746 52.107413 C897.942522 60.147630 888.777963 79.236950 896.218367 94.021606 C906.688884 114.827331 892.618319 140.611011 873.377749 153.737709 C854.137179 166.864407 830.601972 171.908094 809.749578 182.285346 C766.288495 203.913802 737.210000 247.749638 722.588734 294.040827 C707.967469 340.332016 705.996950 389.526906 704.140993 438.036813 C751.233121 422.890152 803.534077 424.516338 849.594240 442.559375 C859.003289 446.245158 869.956971 454.730029 866.031357 464.041568 C862.685001 471.979109 851.678339 472.181444 843.136293 471.069635 C795.205079 464.831034 747.273864 458.592435 699.342649 452.353836 C691.136658 540.124117 620.330376 618.321481 533.803043 635.173221 C578.192677 602.268175 616.722534 560.166328 639.614825 509.875924 C672.908112 436.736330 671.007611 352.589144 694.383871 275.703556 C717.760131 198.817968 785.116907 122.033051 864.338561 135.515365 C887.459111 98.606209 850.089075 47.510948 806.895342 41.929990 C763.701609 36.349032 722.640857 60.892751 688.065959 87.377124 C551.909419 191.673048 452.897565 343.486473 412.345581 510.135142 C367.566844 694.153678 262.637041 860.307168 227.021792 1046.316606 C220.442796 1080.677038 218.061235 1121.090465 242.997055 1145.628749 C287.474649 1189.397263 364.347365 1140.447512 424.024454 1158.684404 C478.132424 1175.219411 499.192752 1239.023607 513.227857 1293.833230 C527.262963 1348.642853 551.027156 1412.304848 606.070063 1425.395201 C620.867242 1428.914279 637.423048 1427.797184 649.909935 1419.112825 C670.070241 1405.091771 673.649422 1376.942444 672.824911 1352.399662 C668.053216 1210.363157 579.134384 1077.687043 592.024099 936.156152 C596.291515 889.299325 558.869768 850.728391 531.256585 812.632653 C503.643401 774.536916 487.010449 714.630369 523.937660 685.472965 C514.411800 702.986697 533.916540 722.287949 552.185926 730.269326 C570.455311 738.250703 593.172809 746.743397 596.361558 766.423455 C621.520069 921.694648 776.185349 1044.582504 933.124864 1033.995599 C959.490836 1032.216990 986.121546 1026.974067 1009.178652 1014.062916 C1035.996173 999.046069 1056.311975 974.631065 1073.175263 948.934477 C1166.621690 806.539103 1166.277574 624.470023 1162.727209 454.187694 C1105.843632 449.410992 1047.909347 457.602197 994.579725 477.961709 C988.094166 471.615730 984.634337 462.303067 985.403283 453.261903 C1036.763115 416.319780 1109.216902 411.269990 1165.204767 440.730333 C1151.438192 295.614412 1019.787729 171.119458 874.129576 165.475754 C1022.836706 151.258865 1171.553950 271.279887 1189.057864 419.636025 C1194.727550 467.690010 1188.287556 516.218604 1184.339270 564.444551 C1177.366675 649.610604 1178.083316 736.000305 1158.456881 819.166865 C1138.830447 902.333426 1095.171954 984.450257 1021.176956 1027.189161 C956.974297 1064.272091 876.024772 1066.900945 806.135583 1042.149657 C736.246394 1017.398368 677.098637 967.263162 633.423124 907.350103 C620.810190 1045.173947 694.026650 1175.666745 712.458260 1312.833701 C720.129321 1369.921282 710.772252 1440.442350 658.416270 1464.456685 C661.818455 1502.398143 665.220640 1540.339600 668.622826 1578.281058 C669.524660 1588.338394 670.928674 1599.431322 678.514516 1606.096029 C684.686551 1611.518605 693.447621 1612.598913 701.638969 1613.231493 C767.682555 1618.331740 834.739059 1609.939794 897.488934 1588.721382 C908.096531 1585.134501 918.969922 1580.937497 926.703250 1572.839197 C940.911582 1557.960307 940.542224 1534.831085 939.281757 1514.296497 C934.896823 1442.860405 930.511889 1371.424313 926.126955 1299.988221 C944.269393 1367.591031 955.973472 1436.920122 961.029299 1506.732202 C962.933283 1533.022860 963.032810 1562.099884 946.119535 1582.317821 M1189.466289 1584.860665 C1193.388825 1610.360638 1201.025677 1635.251168 1203.624203 1660.919876 C1206.222729 1686.588585 1203.167665 1714.148672 1187.798760 1734.871407 C1200.339811 1739.728972 1214.404238 1737.687760 1227.560488 1734.897240 C1240.752032 1732.099234 1253.940137 1728.560745 1265.810209 1722.161755 C1299.686037 1703.899772 1317.964100 1664.043662 1318.707137 1625.566141 C1319.450173 1587.088620 1305.170528 1549.821502 1287.183203 1515.799041 C1277.132024 1496.787551 1265.592899 1478.103428 1249.355866 1464.003013 C1246.544079 1461.561226 1242.131964 1459.285537 1239.458336 1461.877868 C1218.695945 1482.008944 1186.401063 1489.303804 1159.001512 1480.051688 C1157.871007 1490.427213 1165.610285 1499.326537 1171.081506 1508.214468 C1184.965128 1530.768203 1185.439677 1558.684104 1189.466289 1584.860664 M527.778175 770.619612 C529.814740 775.403035 532.323137 780.045982 535.797028 783.913903 C549.931803 799.651929 575.826342 798.859467 591.429680 813.142785 C587.260285 795.424796 582.691469 777.800799 577.727874 760.288697 C577.471184 759.383064 577.182660 758.427009 576.481268 757.799226 C575.040776 756.509910 572.796020 757.245954 570.992728 757.942724 C555.718690 763.844437 537.550745 761.572690 524.200180 752.091718 C522.700878 753.357240 522.971235 755.706071 523.440029 757.611244 C524.533370 762.054548 525.985686 766.409467 527.778175 770.619612 M699.782110 447.621408 C750.037701 440.486028 800.649236 453.921642 849.879663 466.287043 C851.243523 466.629609 852.760995 466.954567 853.994781 466.279853 C855.562984 465.422258 855.961413 463.291980 855.594469 461.542671 C854.417140 455.930040 848.082535 453.280748 842.573354 451.688064 C803.783167 440.473972 762.836715 436.769990 722.663836 440.841149 C714.653559 441.652919 706.310712 442.909627 699.782110 447.621407 M1160.309712 446.321635 C1137.161136 434.233836 1110.050936 431.457476 1084.052945 433.922412 C1058.054954 436.387348 1032.815923 443.803294 1007.765447 451.181987 C1003.495118 452.439825 999.175723 453.718587 995.337908 455.974478 C995.158000 460.739150 1000.101625 464.401564 1004.861127 464.687241 C1009.620628 464.972919 1014.153663 462.869231 1018.516751 460.946232 C1062.711206 441.467819 1113.069906 436.273799 1160.309712 446.321635 z"/></svg>