<?xml version="1.0" encoding="utf-8"?><!DOCTYPE svg PUBLIC "-//W3C//DTD SVG 1.1//EN" "http://www.w3.org/Graphics/SVG/1.1/DTD/svg11.dtd"><svg version="1.1" id="Contours" xmlns="http://www.w3.org/2000/svg" xmlns:xlink="http://www.w3.org/1999/xlink" x="0px" y="0px" width="100%" height="100%" viewBox="-0.000000 0.000000 436.253693 604.174988" enable-background="new 0 0 436.253693 436.253693" xml:space="preserve" stroke="black" stroke-linecap='round' stroke-linejoin='round'><path class="selected" opacity="1.000000" stroke="none" 
 	d="
M192.962708 118.333056 C195.519547 113.177530 201.057062 107.829560 206.243824 110.322424 C208.058314 111.194504 209.331045 112.876578 210.467244 114.538490 C221.818401 131.141761 226.575309 152.125911 223.493452 172.001010 C221.944350 181.991272 226.904052 191.812788 232.634530 200.141455 C257.753377 236.649142 301.695804 259.414702 346.006962 258.877103 C355.068327 258.767168 366.098972 258.727882 370.680189 266.546633 C374.163541 272.491659 371.705991 280.444388 366.962815 285.442322 C362.219639 290.440256 355.687292 293.243559 349.485839 296.246733 C313.827947 313.514756 283.544235 341.691361 263.753893 376.013543 C243.963551 410.335726 234.748840 450.660822 237.667424 490.172234 C238.374120 499.739384 224.656650 504.722138 216.359850 499.906239 C208.063050 495.090340 204.429979 485.199111 201.448714 476.080896 C190.420838 442.352045 179.708741 408.043967 160.891094 377.958331 C142.073448 347.872696 113.798096 321.948205 79.192823 314.091716 C71.829780 312.420074 62.002256 308.504100 63.652183 301.136161 C65.313596 293.716931 76.624804 294.102465 81.666187 288.411268 C90.676691 278.239345 104.285718 273.803221 116.586693 268.028863 C144.838637 254.766759 168.689524 232.321197 183.640802 204.925669 C186.616670 199.472925 189.278294 193.740652 190.282544 187.610425 C191.877023 177.877267 189.195922 168.029763 187.869230 158.256503 C186.037484 144.762691 186.912386 130.532722 192.962708 118.333056 M300.866382 285.593752 C265.222865 276.412101 233.058739 254.301012 211.720144 224.310557 C207.949824 223.933950 205.261942 227.730618 203.323999 230.986615 C184.639037 262.379851 155.524193 287.444129 121.701610 301.253396 C163.899756 325.742216 195.652906 367.610164 207.853968 414.849131 C217.356577 389.373615 227.712661 364.009382 242.449582 341.159335 C257.186503 318.309288 276.632175 297.922770 300.866382 285.593752 z"/><path class="selected"   opacity="1.000000" stroke="none" 
 	d="
M394.935858 54.777442 C399.870525 68.969137 414.607277 77.950840 429.461335 80.211838 C436.710988 81.315338 438.000541 91.952198 434.077929 98.148026 C430.155317 104.343855 423.361193 108.265515 419.326612 114.389022 C414.682512 121.437627 414.301609 130.392205 414.419861 138.832377 C414.538113 147.272550 414.941888 156.056693 411.520499 163.773207 C408.099110 171.489721 399.423013 177.655043 391.373711 175.113543 C382.392749 172.277883 379.401218 161.097116 379.214497 151.680971 C378.854663 133.535082 359.055579 118.514235 341.483549 123.055869 C335.251064 124.666705 328.997600 118.824236 328.021773 112.461343 C327.045946 106.098450 329.906923 99.780714 333.327660 94.327530 C339.382129 84.675775 347.376550 76.345048 353.318152 66.623406 C360.088556 55.545677 364.048839 42.765674 364.728835 29.800642 C365.088251 22.947898 364.594174 15.817540 367.264445 9.496232 C369.934716 3.174924 377.244642 -1.929968 383.577653 0.712428 C387.623513 2.400530 389.996474 6.656850 391.234070 10.862444 C395.402886 25.028891 390.085942 40.829482 394.935857 54.777442 M397.091050 92.408165 C397.234161 90.715095 395.822024 89.338260 394.529714 88.235128 C391.546625 85.688734 388.563539 83.142339 385.580453 80.595944 C384.878941 79.997126 384.085573 79.364037 383.163586 79.389378 C381.908499 79.423873 381.050382 80.626133 380.400499 81.700417 C377.926865 85.789452 375.453230 89.878485 372.979595 93.967518 C372.472109 94.806416 371.947730 95.809399 372.314379 96.718717 C372.581206 97.380468 373.246159 97.778031 373.867948 98.128017 C376.556675 99.641421 379.245401 101.154825 381.934128 102.668229 C384.373034 104.041017 387.874460 105.237024 389.589629 103.025463 C391.631633 100.392469 393.673637 97.759478 395.715641 95.126487 C396.347219 94.312121 397.004248 93.435077 397.091051 92.408165 z"/><path class="selected"   opacity="1.000000" stroke="none" 
 	d="
M106.230616 505.709638 C97.178394 516.112741 94.392480 530.663432 94.669993 544.450754 C94.947506 558.238077 97.916382 571.833799 98.838251 585.593067 C99.323979 592.842755 97.813373 602.108577 90.773410 603.906583 C85.755813 605.188077 80.816637 601.665549 77.258068 597.903223 C69.278590 589.466853 63.845072 578.652876 61.838797 567.215250 C57.861487 544.540893 40.970952 524.594240 19.262016 516.934764 C13.418215 514.872919 6.936041 513.435156 2.760610 508.856184 C-1.414821 504.277212 -0.994796 495.142625 4.987808 493.527177 C28.789260 487.100208 45.570372 461.208371 41.716765 436.857503 C40.863817 431.467740 39.132557 426.146125 39.384709 420.695118 C39.636861 415.244111 42.567431 409.375442 47.830973 407.935933 C49.849786 407.383814 52.011367 407.539817 54.037359 408.064979 C64.148658 410.685954 69.801029 421.465089 72.377673 431.587775 C74.954318 441.710462 75.879804 452.657247 81.821241 461.248359 C88.758663 471.279639 101.000188 475.934659 112.488598 480.029883 C117.464509 481.803620 118.534961 488.779131 116.299264 493.565306 C114.063568 498.351482 109.698261 501.724509 106.230616 505.709638 M72.521987 494.414567 C72.964444 493.730500 73.421661 493.001314 73.447994 492.187053 C73.483545 491.087789 72.735866 490.136941 72.028087 489.295103 C70.286260 487.223371 68.463429 485.088293 66.008589 483.948211 C63.553749 482.808128 60.274156 482.963984 58.541161 485.043108 C57.067280 486.811363 56.918255 489.625845 54.965474 490.844734 C52.350371 492.477021 52.126952 496.432688 53.666974 499.103165 C55.206995 501.773643 57.971973 503.460120 60.622778 505.033762 C61.738060 505.695847 63.040852 506.381587 64.269548 505.966233 C65.225856 505.642959 65.844058 504.739072 66.392302 503.891452 C68.435530 500.732490 70.478759 497.573528 72.521987 494.414567 z"/></svg>