<svg version="1.1" id="Contours" xmlns="http://www.w3.org/2000/svg" xmlns:xlink="http://www.w3.org/1999/xlink" x="0px" y="0px" width="100%" height="100%" viewBox="0.000000 0.000000 102.676865 146.574402" enable-background="new 0 0 102.676865 102.676865" xml:space="preserve" stroke="black" stroke-linecap='round' stroke-linejoin='round'>
	<path class="selected"   opacity="1.000000" stroke="none" d="M31.571142 121.597814 C28.409591 110.964979 21.248594 101.573262 11.832016 95.709760 C8.158244 93.422182 3.981540 91.488792 1.686966 87.819384 C-2.936374 80.425887 2.686394 70.694368 9.579040 65.352973 C16.471686 60.011578 25.088452 56.211564 29.387808 48.625089 C32.721729 42.742182 32.810650 35.628642 32.708969 28.867482 C32.607287 22.106323 32.464819 15.042687 35.432580 8.966833 C38.400340 2.890978 45.594071 -1.718627 51.939053 0.619070 C57.132125 2.532365 59.894436 8.183668 61.302619 13.535837 C64.514299 25.742665 64.085721 40.300493 73.638648 48.550531 C79.780722 53.854915 88.530084 54.944604 95.354486 59.336541 C102.178889 63.728478 105.922015 75.166815 98.955035 79.328878 C82.125425 89.382854 69.861603 106.778033 66.046219 126.007201 C65.009559 131.231881 64.462659 136.832515 61.270805 141.096786 C56.636080 147.288709 46.601073 148.444379 40.680173 143.468082 C34.527462 138.296957 33.861792 129.301664 31.571142 121.597815 M47.973754 72.026023 C45.143224 74.860927 42.312694 77.695830 39.482164 80.530733 C37.047713 82.968948 40.045759 87.521533 43.489523 87.630784 C46.933286 87.740036 49.838168 85.202398 52.222682 82.715325 C54.607197 80.228252 57.148001 77.472594 60.550003 76.926858 C59.008828 74.870911 57.397289 72.752809 55.141280 71.522945 C52.885271 70.293081 49.789237 70.207738 47.973754 72.026024 z"/>
</svg>