<?xml version="1.0" encoding="utf-8"?><!DOCTYPE svg PUBLIC "-//W3C//DTD SVG 1.1//EN" "http://www.w3.org/Graphics/SVG/1.1/DTD/svg11.dtd"><svg version="1.1" id="Contours" xmlns="http://www.w3.org/2000/svg" xmlns:xlink="http://www.w3.org/1999/xlink" x="0px" y="0px" width="480.018585px" height="480.018585px" viewBox="-0.000000 -0.000000 480.018585 535.218445" enable-background="new 0 0 480.018585 480.018585" xml:space="preserve" stroke="black" fill="none" stroke-linecap='round' stroke-linejoin='round'><path class="selected"  fill="#000000" opacity="1.000000" stroke="none" 
 	d="
M0.499450 264.644094 C-1.772445 256.175740 4.011939 247.213262 11.662184 242.929773 C19.312428 238.646283 28.384936 237.943019 37.131522 237.333300 C73.453920 234.801281 109.776315 232.269265 146.098711 229.737248 C156.641673 229.002304 169.766605 226.186376 172.094294 215.877348 C186.795657 150.766945 201.497021 85.656543 216.198384 20.546141 C217.896727 13.024405 220.350339 4.516905 227.320730 1.219249 C234.098269 -1.987173 242.523481 1.509886 247.296476 7.292161 C252.069471 13.074435 254.047130 20.600572 255.896261 27.866718 C271.363098 88.643555 286.829936 149.420387 302.296773 210.197219 C351.574675 205.937539 400.455749 197.098450 448.104786 183.830981 C454.507167 182.048291 461.184026 180.169746 467.705943 181.447658 C474.227860 182.725569 480.444922 188.290423 479.995625 194.921153 C479.426738 203.316718 469.774554 207.459781 461.745082 209.977054 C413.698622 225.039800 367.986056 247.522417 326.725745 276.383033 C323.583394 278.581036 320.068757 281.831052 321.068343 285.533269 C334.206927 334.195103 347.345508 382.856937 360.484089 431.518771 C362.695884 439.710678 364.492886 449.650775 358.527287 455.684929 C353.804099 460.462395 345.813556 460.500109 339.729295 457.651521 C333.645033 454.802932 328.995294 449.669094 324.414345 444.755073 C293.519292 411.613704 258.059834 382.733158 219.351512 359.184900 C166.932107 405.091543 123.535438 461.261529 92.347305 523.571354 C90.095434 528.070301 87.501199 532.985285 82.804304 534.788234 C78.107409 536.591183 71.423270 532.438961 73.097553 527.694677 C97.431172 458.742476 120.822336 389.457680 143.262308 319.866168 C106.590612 302.477455 67.784369 289.595997 27.993649 281.603553 C16.832232 279.361649 3.449340 275.639616 0.499453 264.644093 M235.974757 71.136698 C224.747486 119.842790 213.520215 168.548882 202.292944 217.254974 C201.908081 218.924585 201.729331 221.099752 203.226438 221.933053 C203.952417 222.337136 204.840840 222.251371 205.665983 222.154070 C225.042497 219.869170 244.419012 217.584270 263.795526 215.299370 C265.016052 215.155444 266.310144 214.981337 267.259143 214.200441 C269.110523 212.677005 268.728863 209.792421 268.177663 207.459045 C257.443356 162.018263 246.709057 116.577480 235.974757 71.136698 M181.067672 295.885570 C180.626766 297.502219 180.190534 299.251732 180.791511 300.815950 C181.463423 302.564793 183.235595 303.593870 184.883134 304.485797 C193.913435 309.374520 202.943736 314.263244 211.974038 319.151968 C214.835969 320.701329 218.681122 322.149734 221.036987 319.904501 C240.004308 301.827869 260.422271 285.273774 282.029941 270.453773 C284.647327 268.658592 284.087282 264.707717 283.232306 261.651183 C282.076148 257.517938 280.919992 253.384694 279.763836 249.251449 C279.342951 247.746789 278.821235 246.103278 277.490633 245.284350 C276.269939 244.533068 274.718911 244.697649 273.298208 244.887700 C248.227682 248.241492 223.157157 251.595279 198.086631 254.949066 C196.473472 255.164865 194.790054 255.407305 193.460610 256.346149 C191.557911 257.689821 190.822393 260.118398 190.209507 262.365637 C187.162229 273.538948 184.114950 284.712259 181.067672 295.885570 M247.279301 333.046261 C245.007131 334.923831 242.754172 338.656439 245.186735 340.320971 C272.846880 359.247957 299.065569 380.280973 323.540978 403.177886 C313.748975 368.229225 303.712101 333.349172 293.431340 298.541153 C277.500412 309.286070 262.092167 320.805889 247.279301 333.046261 M171.139134 332.002921 C163.408980 353.449062 155.678826 374.895202 147.948673 396.341343 C147.715163 396.989181 147.963165 397.778359 148.525275 398.176170 C162.392102 379.186321 177.955911 361.436140 194.970543 345.206369 C187.473943 340.055715 179.481246 335.627477 171.139134 332.002921 M150.128289 286.951076 C151.781333 286.688644 152.544357 284.792893 153.002275 283.183006 C155.164044 275.582895 157.325817 267.982786 159.487589 260.382676 C139.325576 262.446348 119.163563 264.510020 99.001550 266.573693 C99.590447 267.609690 100.784357 268.113455 101.894369 268.547004 C117.216387 274.531457 132.538404 280.515913 147.860421 286.500368 C148.587373 286.784300 149.357509 287.073443 150.128289 286.951076 M319.720507 237.463180 C316.608373 237.998465 313.233324 238.677483 311.181106 241.077546 C309.128887 243.477610 309.701092 248.132942 312.796527 248.757591 C319.753662 244.884414 326.710797 241.011237 333.667933 237.138059 C332.630234 235.516780 330.260650 235.650281 328.363573 235.976574 C325.482551 236.472112 322.601529 236.967646 319.720507 237.463180 z"/></svg>