<svg width="31" height="28" viewBox="0 0 31 28" fill="none" xmlns="http://www.w3.org/2000/svg">
<path d="M27 1H2.99375C1.89375 1 1 1.87388 1 2.94665V26.0533C1 27.1261 1.89375 28 2.99375 28H27C28.1 28 29 27.1261 29 26.0533V2.94665C29 1.87388 28.1 1 27 1ZM9.4625 24.1429H5.3125V11.2576H9.46875V24.1429H9.4625ZM7.3875 9.49777C6.05625 9.49777 4.98125 8.45513 4.98125 7.17746C4.98125 5.89978 6.05625 4.85714 7.3875 4.85714C8.7125 4.85714 9.79375 5.89978 9.79375 7.17746C9.79375 8.46116 8.71875 9.49777 7.3875 9.49777ZM25.0187 24.1429H20.8687V17.875C20.8687 16.3804 20.8375 14.4578 18.7125 14.4578C16.55 14.4578 16.2188 16.085 16.2188 17.7665V24.1429H12.0688V11.2576H16.05V13.0174H16.1062C16.6625 12.0049 18.0188 10.9382 20.0375 10.9382C24.2375 10.9382 25.0187 13.608 25.0187 17.0795V24.1429Z" fill="#8B4513"/>
</svg>
