<svg width="31" height="31" viewBox="0 0 31 31" fill="none" xmlns="http://www.w3.org/2000/svg">
<path d="M31 15C31 23.2863 24.0625 30 15.5 30C13.9 30 12.3625 29.7641 10.9125 29.3286C11.5438 28.3306 12.4875 26.6976 12.8375 25.3972C13.025 24.6956 13.8 21.8286 13.8 21.8286C14.3063 22.7601 15.7813 23.5524 17.35 23.5524C22.025 23.5524 25.3937 19.3911 25.3937 14.2198C25.3937 9.26613 21.2125 5.55847 15.8375 5.55847C9.15 5.55847 5.59375 9.90121 5.59375 14.6371C5.59375 16.8387 6.80625 19.5786 8.7375 20.4496C9.03125 20.5827 9.1875 20.5222 9.25625 20.25C9.30625 20.0444 9.56875 19.0222 9.6875 18.5504C9.725 18.3992 9.70625 18.2661 9.58125 18.121C8.95 17.3649 8.4375 15.9859 8.4375 14.6976C8.4375 11.3891 11.025 8.18952 15.4375 8.18952C19.2438 8.18952 21.9125 10.6996 21.9125 14.2923C21.9125 18.3508 19.7938 21.1633 17.0375 21.1633C15.5188 21.1633 14.375 19.9476 14.7437 18.4536C15.1812 16.6694 16.025 14.746 16.025 13.4577C16.025 12.3085 15.3875 11.3468 14.0625 11.3468C12.5063 11.3468 11.2563 12.9012 11.2563 14.9879C11.2563 16.3185 11.7188 17.2137 11.7188 17.2137C11.7188 17.2137 10.1875 23.4919 9.90625 24.6653C9.59375 25.9597 9.71875 27.7863 9.85 28.9718C4.0875 26.7883 0 21.3569 0 15C0 6.71371 6.9375 0 15.5 0C24.0625 0 31 6.71371 31 15Z" fill="#8B4513"/>
</svg>
